<svg width="2042" height="400" viewBox="0 0 2042 400" fill="none" xmlns="http://www.w3.org/2000/svg">
<path d="M393.632 59.2458C397.266 55.6113 399.311 50.6741 399.311 45.5285V9.79602C399.311 4.38992 394.921 0 389.516 0H235.659C230.253 0 225.863 4.38992 225.863 9.79602V244.838C230.552 331.31 301.932 400 389.516 400C394.921 400 399.311 395.61 399.311 390.204V236.331C399.311 230.925 394.921 226.549 389.516 226.549H248.892C240.568 226.549 236.401 216.492 242.288 210.604L393.632 59.2458Z" fill="black"/>
<path d="M393.632 59.2458C397.266 55.6113 399.311 50.6741 399.311 45.5285V9.79602C399.311 4.38992 394.921 0 389.516 0H235.659C230.253 0 225.863 4.38992 225.863 9.79602V244.838C230.552 331.31 301.932 400 389.516 400C394.921 400 399.311 395.61 399.311 390.204V236.331C399.311 230.925 394.921 226.549 389.516 226.549H248.892C240.568 226.549 236.401 216.492 242.288 210.604L393.632 59.2458Z" fill="url(#paint0_linear_1548_67308)"/>
<path d="M9.79561 0C4.39001 0 0 4.38992 0 9.79602V164.111C0 167.98 2.35721 171.302 5.70478 172.722C6.82497 173.191 8.05019 173.451 9.33971 173.451H150.418C155.616 173.451 159.198 177.386 159.706 181.763C159.719 181.789 159.706 181.815 159.706 181.841C159.993 184.446 159.211 187.208 157.023 189.396L5.67934 340.754C2.04521 344.389 0 349.326 0 354.458V390.204C0 395.61 4.39001 400 9.79561 400H163.653C169.058 400 173.435 395.61 173.435 390.204V155.162C168.759 68.6903 97.3793 0 9.79561 0Z" fill="black"/>
<path d="M9.79561 0C4.39001 0 0 4.38992 0 9.79602V164.111C0 167.98 2.35721 171.302 5.70478 172.722C6.82497 173.191 8.05019 173.451 9.33971 173.451H150.418C155.616 173.451 159.198 177.386 159.706 181.763C159.719 181.789 159.706 181.815 159.706 181.841C159.993 184.446 159.211 187.208 157.023 189.396L5.67934 340.754C2.04521 344.389 0 349.326 0 354.458V390.204C0 395.61 4.39001 400 9.79561 400H163.653C169.058 400 173.435 395.61 173.435 390.204V155.162C168.759 68.6903 97.3793 0 9.79561 0Z" fill="url(#paint1_linear_1548_67308)"/>
<path d="M681.705 150.772H588.207V59.8324H540.013V284.753H588.207V194.464H681.705V284.753H729.9V59.8324H681.705V150.772Z" fill="white"/>
<path d="M868.074 229.167L820.492 114.779H768.767L845.54 284.101L813.744 358.666H860.011L960.581 114.779H908.531L868.074 229.167Z" fill="white"/>
<path d="M1117.68 225.155C1114.04 232.541 1109.01 238.273 1102.59 242.337C1096.15 246.415 1088.77 248.447 1080.4 248.447C1071.85 248.447 1064.34 246.415 1057.92 242.337C1051.5 238.273 1046.46 232.541 1042.82 225.155C1039.18 217.769 1037.37 209.249 1037.37 199.61C1037.37 189.97 1039.18 181.45 1042.82 174.064C1046.46 166.678 1051.5 160.998 1057.92 157.038C1064.34 153.078 1071.85 151.098 1080.4 151.098C1088.97 151.098 1096.42 153.13 1102.74 157.194C1109.06 161.259 1114.04 166.952 1117.68 174.221C1121.32 181.503 1123.14 189.97 1123.14 199.61C1123.14 209.249 1121.32 217.769 1117.68 225.155ZM1130.06 122.973C1118.59 115.378 1105.48 111.575 1090.69 111.575C1081.07 111.575 1071.85 113.386 1063.07 117.033C1054.29 120.681 1046.94 125.383 1041.05 131.167C1039.83 132.379 1038.75 133.616 1037.72 134.867L1037.04 114.779H993.028V355.449H1038.97V265.994C1039.31 266.359 1039.58 266.723 1039.93 267.088C1046.15 273.302 1053.69 278.278 1062.57 282.017C1071.47 285.769 1080.83 287.644 1090.69 287.644C1105.48 287.644 1118.65 283.854 1130.21 276.246C1141.78 268.638 1150.88 258.191 1157.51 244.917C1164.16 231.629 1167.48 216.531 1167.48 199.61C1167.48 182.479 1164.1 167.316 1157.36 154.146C1150.61 140.976 1141.52 130.581 1130.06 122.973Z" fill="white"/>
<path d="M1261.78 155.592C1268.31 151.945 1276.28 150.121 1285.71 150.121C1292.15 150.121 1297.93 151.41 1303.06 153.977C1308.21 156.556 1312.43 160.191 1315.75 164.906C1319.07 169.622 1320.95 174.872 1321.38 180.656V181.932H1243.37C1244.2 178.233 1245.32 174.767 1246.83 171.654C1250.27 164.58 1255.25 159.24 1261.78 155.592ZM1342.74 135.179C1335.56 127.584 1327.04 121.697 1317.19 117.515C1307.35 113.333 1296.64 111.249 1285.07 111.249C1272.65 111.249 1261.13 113.45 1250.53 117.827C1239.93 122.23 1230.77 128.431 1223.06 136.469C1215.35 144.506 1209.36 153.977 1205.07 164.906C1200.79 175.836 1198.65 187.833 1198.65 200.899C1198.65 217.821 1202.51 232.815 1210.2 245.881C1217.93 258.946 1228.63 269.225 1242.34 276.728C1256.04 284.231 1272.11 287.97 1290.53 287.97C1298.24 287.97 1306.06 287.006 1313.99 285.078C1321.91 283.15 1329.62 280.31 1337.12 276.559C1344.61 272.82 1351.47 268.156 1357.68 262.581L1335.83 232.059C1328.77 237.843 1322.12 241.921 1315.92 244.265C1309.71 246.636 1302.85 247.809 1295.35 247.809C1284.44 247.809 1274.95 245.724 1266.92 241.542C1258.88 237.361 1252.68 231.538 1248.29 224.021C1245.8 219.775 1244.1 215.033 1243.01 209.887H1364.11L1364.43 195.753C1364.86 183.547 1363.15 172.305 1359.29 162.014C1355.44 151.736 1349.91 142.787 1342.74 135.179Z" fill="white"/>
<path d="M1501.61 111.249C1493.05 111.249 1484.86 113.294 1477.03 117.346C1469.22 121.423 1462.42 127.038 1456.63 134.228C1454.52 136.834 1452.7 139.595 1451.02 142.435L1450.21 114.779H1406.19V284.753H1452.14V196.718C1452.14 191.364 1453.05 186.427 1454.86 181.932C1456.68 177.438 1459.2 173.53 1462.42 170.208C1465.63 166.886 1469.42 164.32 1473.81 162.497C1478.2 160.686 1482.98 159.774 1488.13 159.774C1491.97 159.774 1495.72 160.256 1499.37 161.22C1503 162.171 1506.1 163.304 1508.68 164.581L1520.89 114.466C1518.53 113.607 1515.64 112.852 1512.21 112.213C1508.79 111.575 1505.26 111.249 1501.61 111.249Z" fill="white"/>
<path d="M1615.35 121.045C1621.34 114.935 1628.36 110.181 1636.39 106.755C1644.42 103.329 1653.04 101.609 1662.25 101.609C1669.11 101.609 1675.59 102.626 1681.7 104.658C1687.8 106.703 1693.58 109.581 1699.04 113.333C1704.51 117.085 1709.8 121.527 1714.94 126.673L1745.15 93.2593C1738.94 85.5474 1731.5 78.9038 1722.82 73.3283C1714.13 67.7659 1704.61 63.5319 1694.22 60.64C1683.84 57.748 1673.29 56.3019 1662.58 56.3019C1646.08 56.3019 1630.77 59.1941 1616.64 64.978C1602.49 70.7619 1590.17 78.8514 1579.69 89.2337C1569.19 99.6291 1561.05 111.835 1555.26 125.865C1549.49 139.895 1546.59 155.162 1546.59 171.654C1546.59 188.576 1549.38 204.156 1554.95 218.407C1560.51 232.659 1568.39 244.969 1578.56 255.364C1588.72 265.746 1600.73 273.784 1614.54 279.464C1628.36 285.13 1643.51 287.97 1660.01 287.97C1670.93 287.97 1681.74 286.628 1692.46 283.958C1703.17 281.274 1712.86 277.588 1721.53 272.872C1730.21 268.156 1737.11 262.907 1742.26 257.123L1718.8 219.527C1714.51 224.021 1709.64 227.995 1704.18 231.421C1698.73 234.847 1692.77 237.531 1686.35 239.445C1679.93 241.386 1673.29 242.337 1666.44 242.337C1655.94 242.337 1646.35 240.683 1637.67 237.361C1629 234.052 1621.56 229.324 1615.35 223.227C1609.14 217.118 1604.32 209.732 1600.89 201.056C1597.46 192.38 1595.75 182.688 1595.75 171.98C1595.75 161.48 1597.52 151.893 1601.05 143.217C1604.59 134.541 1609.34 127.155 1615.35 121.045Z" fill="white"/>
<path d="M1838.96 59.8324H1790.76V284.753H1940.8V241.386H1838.96V59.8324Z" fill="white"/>
<path d="M1993.82 59.8324V284.753H2042V59.8324H1993.82Z" fill="white"/>
<defs>
<linearGradient id="paint0_linear_1548_67308" x1="-9.11786" y1="149.196" x2="254.9" y2="413.188" gradientUnits="userSpaceOnUse">
<stop stop-color="#B93CDF"/>
<stop offset="1" stop-color="#7527F8"/>
</linearGradient>
<linearGradient id="paint1_linear_1548_67308" x1="-9.11786" y1="149.196" x2="254.9" y2="413.188" gradientUnits="userSpaceOnUse">
<stop stop-color="#B93CDF"/>
<stop offset="1" stop-color="#7527F8"/>
</linearGradient>
</defs>
</svg>
