<svg width="399" height="400" viewBox="0 0 399 400" fill="none" xmlns="http://www.w3.org/2000/svg">
<path d="M393.328 59.2446C396.962 55.6156 399 50.6839 399 45.5393V9.79747C399 4.39073 394.621 0 389.219 0H235.478C230.075 0 225.695 4.39073 225.695 9.79747V244.835C230.374 331.31 301.701 400 389.219 400C394.621 400 399 395.609 399 390.202V236.332C399 230.925 394.621 226.542 389.219 226.542H248.696C240.384 226.542 236.221 216.482 242.099 210.6L393.328 59.2446Z" fill="black"/>
<path d="M393.328 59.2446C396.962 55.6156 399 50.6839 399 45.5393V9.79747C399 4.39073 394.621 0 389.219 0H235.478C230.075 0 225.695 4.39073 225.695 9.79747V244.835C230.374 331.31 301.701 400 389.219 400C394.621 400 399 395.609 399 390.202V236.332C399 230.925 394.621 226.542 389.219 226.542H248.696C240.384 226.542 236.221 216.482 242.099 210.6L393.328 59.2446Z" fill="url(#paint0_linear_1548_67310)"/>
<path d="M9.78288 0C4.37987 0 0 4.39073 0 9.79747V164.119C0 167.986 2.34914 171.303 5.6985 172.72C6.81413 173.196 8.04191 173.458 9.33025 173.458H150.302C155.497 173.458 159.073 177.382 159.588 181.773C159.59 181.789 159.584 181.814 159.586 181.838C159.873 184.452 159.085 187.212 156.9 189.399L5.67476 340.747C2.04056 344.384 0 349.316 0 354.461V390.202C0 395.609 4.37987 400 9.78288 400H163.523C168.926 400 173.306 395.609 173.306 390.202V155.165C168.627 68.6899 97.3 0 9.78288 0Z" fill="black"/>
<path d="M9.78288 0C4.37987 0 0 4.39073 0 9.79747V164.119C0 167.986 2.34914 171.303 5.6985 172.72C6.81413 173.196 8.04191 173.458 9.33025 173.458H150.302C155.497 173.458 159.073 177.382 159.588 181.773C159.59 181.789 159.584 181.814 159.586 181.838C159.873 184.452 159.085 187.212 156.9 189.399L5.67476 340.747C2.04056 344.384 0 349.316 0 354.461V390.202C0 395.609 4.37987 400 9.78288 400H163.523C168.926 400 173.306 395.609 173.306 390.202V155.165C168.627 68.6899 97.3 0 9.78288 0Z" fill="url(#paint1_linear_1548_67310)"/>
<defs>
<linearGradient id="paint0_linear_1548_67310" x1="-9.11497" y1="149.193" x2="254.897" y2="412.983" gradientUnits="userSpaceOnUse">
<stop stop-color="#B93CDF"/>
<stop offset="1" stop-color="#7527F8"/>
</linearGradient>
<linearGradient id="paint1_linear_1548_67310" x1="-9.11497" y1="149.193" x2="254.897" y2="412.983" gradientUnits="userSpaceOnUse">
<stop stop-color="#B93CDF"/>
<stop offset="1" stop-color="#7527F8"/>
</linearGradient>
</defs>
</svg>
